<svg width="200" height="200" xmlns="http://www.w3.org/2000/svg">
  <defs>
    <linearGradient id="bg4" x1="0%" y1="0%" x2="100%" y2="100%">
      <stop offset="0%" style="stop-color:#00b894;stop-opacity:1" />
      <stop offset="100%" style="stop-color:#00a085;stop-opacity:1" />
    </linearGradient>
    <linearGradient id="face4" x1="0%" y1="0%" x2="100%" y2="100%">
      <stop offset="0%" style="stop-color:#fdcb6e;stop-opacity:1" />
      <stop offset="100%" style="stop-color:#e17055;stop-opacity:1" />
    </linearGradient>
  </defs>
  <circle cx="100" cy="100" r="100" fill="url(#bg4)"/>
  <circle cx="100" cy="85" r="35" fill="url(#face4)"/>
  <circle cx="88" cy="78" r="3" fill="#2d3436"/>
  <circle cx="112" cy="78" r="3" fill="#2d3436"/>
  <ellipse cx="100" cy="88" rx="2" ry="4" fill="#636e72"/>
  <path d="M 85 95 Q 100 105 115 95" stroke="#636e72" stroke-width="2" fill="none"/>
  <path d="M 75 125 Q 100 140 125 125 Q 115 155 100 160 Q 85 155 75 125" fill="url(#face4)"/>
  <rect x="82" y="70" width="36" height="8" rx="4" fill="#2d3436"/>
  <circle cx="85" cy="135" r="3" fill="#00b894"/>
  <circle cx="115" cy="135" r="3" fill="#00b894"/>
  <path d="M 85 140 Q 100 150 115 140" stroke="#636e72" stroke-width="2" fill="none"/>
</svg>
